# xmcd
#
# Track frame offsets: 
#        150
#        20295
#        46573
#        64609
#        87088
#
# Disc length: 1469 seconds
#
# Revision: 0
# Processed by: cddbd v1.5.2PL0 Copyright (c) Steve Scherf et al.
# Submitted via: ExactAudioCopyFreeDBPlugin 1.0
#
DISCID=2b05bb05
DTITLE=Mito Katsuyuki - 39
DYEAR=1900
DGENRE=JPop
TTITLE0=Miss You
TTITLE1=39
TTITLE2=On Sunday Morning
TTITLE3=Crew on the Earth
TTITLE4=Brand New Day
EXTD=
EXTT0=
EXTT1=
EXTT2=
EXTT3=
EXTT4=
PLAYORDER=
